# xmcd
#
# Track frame offsets:
#	150
#	13448
#	29083
#	42713
#	52985
#	61053
#	78125
#	90355
#	104558
#	115453
#	126275
#	138018
#	152248
#	162130
#	178155
#	190718
#	201240
#	214043
#	228978
#	247925
#
# Disc length: 3515 seconds
#
# Revision: 1
# Processed by: cddbd v1.5.2PL0 Copyright (c) Steve Scherf et al.
# Submitted via: audiograbber 1.83.01
#
DISCID=130db914
DTITLE=Hoyt Axton - Memphis Slim - Allegiance Extra
DYEAR=1987
DGENRE=Country
TTITLE0=Poor Man's Blues
TTITLE1=Me And My Gin
TTITLE2=Lonesome Road
TTITLE3=Young Man
TTITLE4=Big Red
TTITLE5=Send Me To The Electric Chair
TTITLE6=After You've Gone
TTITLE7=Nobody Knows When You're Down And Out
TTITLE8=Red White And Blue
TTITLE9=Bring Me Some Lovin'
TTITLE10=Four O'Clock Blues
TTITLE11=Trouble Mind
TTITLE12=Roll And Tumble
TTITLE13=Cow Cow Blues
TTITLE14=Crowing Rooster
TTITLE15=The Bells
TTITLE16=The Lord Have Mercy On Me
TTITLE17=My Baby Don't Love Me No More
TTITLE18=Pinetop Boogie
TTITLE19=Boogie After Midnight
EXTD=Hoyt Axton's Down And Out  plus Memphis Slim's Trouble
EXTT0=
EXTT1=
EXTT2=
EXTT3=
EXTT4=
EXTT5=
EXTT6=
EXTT7=
EXTT8=
EXTT9=
EXTT10=
EXTT11=
EXTT12=
EXTT13=
EXTT14=
EXTT15=
EXTT16=
EXTT17=
EXTT18=
EXTT19=
PLAYORDER=
